<?xml version="1.0" encoding="utf-8"?>
<!-- Generator: Adobe Illustrator 16.0.0, SVG Export Plug-In . SVG Version: 6.00 Build 0)  -->
<!DOCTYPE svg PUBLIC "-//W3C//DTD SVG 1.1//EN" "http://www.w3.org/Graphics/SVG/1.1/DTD/svg11.dtd">
<svg version="1.1" id="Layer_1" xmlns="http://www.w3.org/2000/svg" xmlns:xlink="http://www.w3.org/1999/xlink" x="0px" y="0px"
	 width="680.31px" height="680.31px" viewBox="0 0 680.31 680.31" enable-background="new 0 0 680.31 680.31" xml:space="preserve">
<g>
	<linearGradient id="SVGID_1_" gradientUnits="userSpaceOnUse" x1="15.4321" y1="339.3857" x2="666.4014" y2="339.3857">
		<stop  offset="0" style="stop-color:#26ABCC"/>
		<stop  offset="0.09" style="stop-color:#2BA8CC"/>
		<stop  offset="0.25" style="stop-color:#3394C2"/>
		<stop  offset="0.47" style="stop-color:#375FA3"/>
		<stop  offset="0.48" style="stop-color:#375CA1"/>
		<stop  offset="1" style="stop-color:#375CA1"/>
	</linearGradient>
	<path fill-rule="evenodd" clip-rule="evenodd" fill="url(#SVGID_1_)" d="M337.175,439.399c-0.316,21.474,0.009,42.947-0.352,64.421
		c-0.096,5.887,3.594,6.413,7.486,7.748c35.505,12.179,54.052,49.37,42.121,84.347c-10.034,29.426-38.791,47.639-70.351,44.565
		c-29.583-2.891-54.544-27.624-58.094-57.586c-3.734-31.418,13.891-60.765,43.535-70.657c7.434-2.47,9.121-5.904,8.962-12.978
		c-0.413-19.408-0.299-38.835-0.035-58.243L337.175,439.399z M455.823,417.909c11.669,8.083,22.967,15.956,34.302,23.758
		c19.618,13.513,39.325,26.886,58.814,40.574c4.252,2.979,7.229,3.865,12.29,0.782c19.138-11.668,42.781-7.812,57.84,8.619
		c14.585,15.902,16.079,40.144,3.586,57.821c-12.608,17.827-35.515,24.514-55.607,16.22c-20.357-8.409-31.623-29.391-28.108-51.575
		c0.405-2.558-0.518-6.722-2.336-8.004c-31.771-22.221-63.788-44.106-96.06-66.283L455.823,417.909z M422.515,261.252
		c40.25-40.267,80.341-80.375,121.239-121.301c-10.473-18.012-13.715-38.229-5.578-59.412c5.693-14.84,15.587-26.183,29.363-34.029
		c27.281-15.525,62.311-9.428,82.634,14.269c20.69,24.126,21.701,58.963,2.434,83.828c-21.035,27.149-53.727,32.974-90.357,14.945
		c-39.616,40.091-79.663,80.63-119.931,121.389L422.515,261.252z M253.381,274.923c-26.876-30.979-53.367-61.723-80.261-92.096
		c-1.688-1.907-6.766-2.074-9.823-1.3c-24.706,6.291-50.001-7.828-56.873-32.131c-7.02-24.892,7.284-50.458,32.131-57.417
		c24.496-6.854,49.818,7.116,56.97,31.595c3.153,10.824,2.715,21.667-2.32,31.806c-2.337,4.709-1.863,7.714,1.564,11.616
		c24.83,28.3,49.36,56.872,74.243,85.128L253.381,274.923z M249.779,413.981c-36.743,32.14-73.232,64.587-110.468,97.587
		c9.024,17.397,11.476,34.943,5.562,53.333c-11.756,36.533-51.812,55.669-87.342,41.638c-35.998-14.199-52.295-55.924-35.417-90.664
		c16.791-34.565,58.981-47.823,92.21-28.503c5.878,3.409,9.138,3.058,14.164-1.458c33.879-30.506,68.128-60.607,102.244-90.866
		L249.779,413.981z M639.77,104.262c0.009-22.124-17.546-39.687-39.668-39.696c-22.002,0-39.847,17.749-39.855,39.644
		c-0.018,21.816,17.978,39.836,39.792,39.854C621.925,144.089,639.752,126.227,639.77,104.262z M81.674,504.979
		c-21.939,0.018-39.661,17.845-39.634,39.863c0.026,22.062,17.669,39.67,39.74,39.67c21.877,0,39.818-17.934,39.783-39.784
		C121.538,522.921,103.517,504.971,81.674,504.979z M323.31,614.218c22.116,0.113,39.89-17.336,40.135-39.362
		c0.229-21.842-17.607-39.977-39.476-40.144c-21.912-0.158-39.897,17.537-40.126,39.484
		C283.615,596.127,301.328,614.096,323.31,614.218z M604.554,522.376c-0.235-10.825-9.217-19.479-20.048-19.347
		c-10.764,0.123-19.682,9.085-19.673,19.769c0.009,11.018,9.524,20.226,20.515,19.848
		C596.041,542.286,604.801,533.043,604.554,522.376z M170.757,136.797c0.08-10.878-8.54-19.761-19.356-19.954
		c-11.149-0.193-20.331,8.917-20.182,20.032c0.141,10.807,8.971,19.452,19.848,19.435
		C162.032,156.302,170.66,147.752,170.757,136.797z"/>
	<linearGradient id="SVGID_2_" gradientUnits="userSpaceOnUse" x1="385.0244" y1="496.3477" x2="482.0449" y2="496.3477">
		<stop  offset="0" style="stop-color:#26ABCC"/>
		<stop  offset="0.09" style="stop-color:#2BA8CC"/>
		<stop  offset="0.25" style="stop-color:#3394C2"/>
		<stop  offset="0.47" style="stop-color:#375FA3"/>
		<stop  offset="0.48" style="stop-color:#375CA1"/>
		<stop  offset="1" style="stop-color:#375CA1"/>
	</linearGradient>
	<path opacity="0.3" fill-rule="evenodd" clip-rule="evenodd" fill="url(#SVGID_2_)" d="M423.298,507.967
		c1.773,3.251,1.634,5.412-0.73,8.329c-5.097,6.257-7.107,13.732-6.615,21.755c1.133,18.16,16.554,31.858,34.679,30.928
		c18.371-0.932,32.341-16.475,31.366-34.891c-0.958-17.985-16.342-31.788-34.512-31.287c-2.258,0.053-5.763-0.861-6.634-2.442
		c-13.935-25.366-27.545-50.916-41.373-76.686l-14.454,13.407C397.896,460.645,410.469,484.377,423.298,507.967z M452.027,522.262
		c7.565,1.695,12.354,9.103,10.755,16.641c-1.643,7.759-9.463,12.652-17.186,10.764c-7.495-1.828-12.099-9.366-10.334-16.913
		C437.048,525.144,444.393,520.549,452.027,522.262z"/>
	<path opacity="0.3" fill-rule="evenodd" clip-rule="evenodd" fill="#5BB4C9" d="M592.492,309.734
		c3.083-1.107,4.963-0.694,7.194,1.766c4.771,5.325,11.036,8.109,18.135,8.769c16.045,1.494,30.128-10.13,31.797-26.113
		c1.687-16.21-9.997-30.558-26.243-32.228c-15.877-1.608-30.049,9.964-32.104,25.938c-0.255,1.977-1.529,4.919-3.041,5.464
		c-24.09,8.734-48.314,17.151-72.749,25.726l9.744,14.479C547.611,325.496,570.096,317.72,592.492,309.734z M608.93,286.547
		c2.514-6.388,9.648-9.568,16.027-7.135c6.57,2.496,9.777,10.008,7.072,16.5c-2.618,6.317-9.85,9.314-16.22,6.739
		C609.405,300.051,606.382,292.988,608.93,286.547z"/>
	<linearGradient id="SVGID_3_" gradientUnits="userSpaceOnUse" x1="583.8457" y1="103.585" x2="615.3613" y2="103.585">
		<stop  offset="0" style="stop-color:#26ABCC"/>
		<stop  offset="0.09" style="stop-color:#2BA8CC"/>
		<stop  offset="0.25" style="stop-color:#3394C2"/>
		<stop  offset="0.47" style="stop-color:#375FA3"/>
		<stop  offset="0.48" style="stop-color:#375CA1"/>
		<stop  offset="1" style="stop-color:#375CA1"/>
	</linearGradient>
	<path fill-rule="evenodd" clip-rule="evenodd" fill="url(#SVGID_3_)" d="M615.361,103.577c0,8.707-7.056,15.762-15.762,15.762
		c-8.697,0-15.754-7.055-15.754-15.762c0-8.699,7.057-15.745,15.754-15.745C608.306,87.832,615.361,94.878,615.361,103.577z"/>
	<linearGradient id="SVGID_4_" gradientUnits="userSpaceOnUse" x1="308.1631" y1="574.9824" x2="339.6699" y2="574.9824">
		<stop  offset="0" style="stop-color:#26ABCC"/>
		<stop  offset="0.09" style="stop-color:#2BA8CC"/>
		<stop  offset="0.25" style="stop-color:#3394C2"/>
		<stop  offset="0.47" style="stop-color:#375FA3"/>
		<stop  offset="0.48" style="stop-color:#375CA1"/>
		<stop  offset="1" style="stop-color:#375CA1"/>
	</linearGradient>
	<path fill-rule="evenodd" clip-rule="evenodd" fill="url(#SVGID_4_)" d="M339.67,574.987c0,8.698-7.055,15.753-15.753,15.753
		c-8.706,0-15.753-7.055-15.753-15.753s7.047-15.763,15.753-15.763C332.615,559.225,339.67,566.289,339.67,574.987z"/>
	<linearGradient id="SVGID_5_" gradientUnits="userSpaceOnUse" x1="65.4902" y1="543.4707" x2="97.0059" y2="543.4707">
		<stop  offset="0" style="stop-color:#26ABCC"/>
		<stop  offset="0.09" style="stop-color:#2BA8CC"/>
		<stop  offset="0.25" style="stop-color:#3394C2"/>
		<stop  offset="0.47" style="stop-color:#375FA3"/>
		<stop  offset="0.48" style="stop-color:#375CA1"/>
		<stop  offset="1" style="stop-color:#375CA1"/>
	</linearGradient>
	<path fill-rule="evenodd" clip-rule="evenodd" fill="url(#SVGID_5_)" d="M97.006,543.472c0,8.707-7.055,15.753-15.753,15.753
		c-8.707,0-15.762-7.046-15.762-15.753s7.056-15.754,15.762-15.754C89.951,527.718,97.006,534.765,97.006,543.472z"/>
	<g>
		<path opacity="0.3" fill-rule="evenodd" clip-rule="evenodd" fill="#5BB4C9" d="M161.382,317.597
			c-8.056-32.613-29.038-50.106-57.285-48.964c-25.849,1.036-47.251,20.12-51.478,45.934c-4.147,25.339,10.569,50.634,34.793,59.586
			c12.239,4.517,24.619,4.728,36.981,0.448c17.642-6.105,28.651-18.847,34.441-34.986c47.436,4.068,14.234-1.309,60.915,2.698
			l1.906-22.897C174.649,315.664,207.615,321.288,161.382,317.597z M127.6,348.174c-13.786,11.589-34.416,9.761-46.066-4.095
			c-11.729-13.926-9.964-34.283,3.972-45.995c13.829-11.633,34.529-9.876,46.101,3.918C143.16,315.752,141.35,336.62,127.6,348.174z
			"/>
		<path opacity="0.3" fill-rule="evenodd" clip-rule="evenodd" fill="#5BB4C9" d="M118.321,323.124
			c0,6.73-5.456,12.178-12.187,12.178c-6.73,0-12.177-5.447-12.177-12.178c0-6.721,5.447-12.177,12.177-12.177
			C112.865,310.947,118.321,316.403,118.321,323.124z"/>
	</g>
	<linearGradient id="SVGID_6_" gradientUnits="userSpaceOnUse" x1="143.3706" y1="136.7349" x2="158.2104" y2="136.7349">
		<stop  offset="0" style="stop-color:#26ABCC"/>
		<stop  offset="0.09" style="stop-color:#2BA8CC"/>
		<stop  offset="0.25" style="stop-color:#3394C2"/>
		<stop  offset="0.47" style="stop-color:#375FA3"/>
		<stop  offset="0.48" style="stop-color:#375CA1"/>
		<stop  offset="1" style="stop-color:#375CA1"/>
	</linearGradient>
	<path fill-rule="evenodd" clip-rule="evenodd" fill="url(#SVGID_6_)" d="M158.21,136.735c0,4.095-3.321,7.416-7.424,7.416
		c-4.095,0-7.416-3.321-7.416-7.416c0-4.094,3.321-7.416,7.416-7.416C154.889,129.319,158.21,132.641,158.21,136.735z"/>
	<linearGradient id="SVGID_7_" gradientUnits="userSpaceOnUse" x1="614.9043" y1="290.835" x2="625.3516" y2="290.835">
		<stop  offset="0" style="stop-color:#26ABCC"/>
		<stop  offset="0.09" style="stop-color:#2BA8CC"/>
		<stop  offset="0.25" style="stop-color:#3394C2"/>
		<stop  offset="0.47" style="stop-color:#375FA3"/>
		<stop  offset="0.48" style="stop-color:#375CA1"/>
		<stop  offset="1" style="stop-color:#375CA1"/>
	</linearGradient>
	<path opacity="0.3" fill-rule="evenodd" clip-rule="evenodd" fill="url(#SVGID_7_)" d="M625.352,290.835
		c0,2.882-2.336,5.228-5.22,5.228c-2.891,0-5.228-2.346-5.228-5.228c0-2.891,2.337-5.227,5.228-5.227
		C623.016,285.608,625.352,287.944,625.352,290.835z"/>
	<linearGradient id="SVGID_8_" gradientUnits="userSpaceOnUse" x1="578.3281" y1="523.1543" x2="591.1641" y2="523.1543">
		<stop  offset="0" style="stop-color:#26ABCC"/>
		<stop  offset="0.09" style="stop-color:#2BA8CC"/>
		<stop  offset="0.25" style="stop-color:#3394C2"/>
		<stop  offset="0.47" style="stop-color:#375FA3"/>
		<stop  offset="0.48" style="stop-color:#375CA1"/>
		<stop  offset="1" style="stop-color:#375CA1"/>
	</linearGradient>
	<path fill-rule="evenodd" clip-rule="evenodd" fill="url(#SVGID_8_)" d="M591.164,523.158c0,3.541-2.882,6.414-6.422,6.414
		c-3.541,0-6.414-2.873-6.414-6.414s2.873-6.423,6.414-6.423C588.282,516.735,591.164,519.617,591.164,523.158z"/>
	<linearGradient id="SVGID_9_" gradientUnits="userSpaceOnUse" x1="443.8389" y1="536.2852" x2="454.2939" y2="536.2852">
		<stop  offset="0" style="stop-color:#26ABCC"/>
		<stop  offset="0.09" style="stop-color:#2BA8CC"/>
		<stop  offset="0.25" style="stop-color:#3394C2"/>
		<stop  offset="0.47" style="stop-color:#375FA3"/>
		<stop  offset="0.48" style="stop-color:#375CA1"/>
		<stop  offset="1" style="stop-color:#375CA1"/>
	</linearGradient>
	<path opacity="0.3" fill-rule="evenodd" clip-rule="evenodd" fill="url(#SVGID_9_)" d="M454.294,536.285
		c0,2.89-2.336,5.228-5.235,5.228c-2.884,0-5.22-2.338-5.22-5.228c0-2.882,2.336-5.229,5.22-5.229
		C451.958,531.057,454.294,533.403,454.294,536.285z"/>
	<linearGradient id="SVGID_10_" gradientUnits="userSpaceOnUse" x1="198.9043" y1="325.9883" x2="544.4609" y2="325.9883">
		<stop  offset="0" style="stop-color:#26ABCC"/>
		<stop  offset="0.09" style="stop-color:#2BA8CC"/>
		<stop  offset="0.25" style="stop-color:#3394C2"/>
		<stop  offset="0.47" style="stop-color:#375FA3"/>
		<stop  offset="0.48" style="stop-color:#375CA1"/>
		<stop  offset="1" style="stop-color:#375CA1"/>
	</linearGradient>
	<path fill="url(#SVGID_10_)" d="M542.797,354.342c-3.039-15.438-10.727-29.275-22.247-40.013
		c-10.753-10.016-24.064-16.64-38.649-19.25c-3.805-15.173-12.705-26.938-25.858-34.143c-13.794-7.547-28.492-8.803-43.473-3.672
		c-6.933-15.533-17.978-28.441-32.026-37.402c-13.75-8.786-29.696-13.434-46.092-13.434c-6.185,0-12.37,0.685-18.389,2.011
		c-18.31,4.068-35.04,14.356-47.121,28.959c-11.667,14.12-18.503,31.701-19.364,49.739c-9.446,3.945-17.941,9.515-25.287,16.562
		c-11.554,11.115-19.594,25.418-23.248,41.374c-3.673,16.026-2.601,32.245,3.11,46.909c6.326,16.264,16.94,29.82,30.699,39.222
		c13.741,9.393,30.242,14.348,47.7,14.348h0.026l68.523-0.009c39.738,0,79.471-0.009,119.2-0.026c2.689,0,5.58-0.228,8.84-0.685
		c14.796-2.073,27.658-7.802,38.228-17.001C539.643,408.42,548.446,383.002,542.797,354.342z M363.129,418.762
		c-31.217,0-57.013-0.009-81.192-0.054c-25.049-0.044-46.03-15.34-53.472-38.976c-8.057-25.638,3.25-53.199,26.903-65.535
		c3.577-1.862,7.583-3.189,11.835-4.604l2.618-0.878c0.545-0.184,0.914-0.333,1.159-0.431l6.194-2.768l-0.421-6.739l-0.045-0.589
		c-1.458-14.937,2.039-28.572,10.395-40.538c10.587-15.166,28.845-24.584,47.638-24.584c6.828,0,13.442,1.221,19.646,3.637
		c20.894,8.127,33.167,22.73,37.525,44.633c0.299,1.529,0.642,3.076,0.975,4.587l3.401,15.26l12.037-9.971
		c2.021-1.67,3.918-3.234,5.903-4.728c8.338-6.273,17.133-7.345,26.385-3.251c9.585,4.244,14.945,11.827,15.903,22.554
		c0.14,1.477,0.149,3.041,0.167,4.771v9.568l10.35,0.615c2.565,0.123,4.974,0.238,7.275,0.563
		c20.542,2.803,33.843,13.636,40.688,33.114c6.809,19.383,0.308,41.04-16.176,53.903c-8.839,6.905-18.943,10.411-30.03,10.411
		L363.129,418.762z"/>
</g>
</svg>
